<svg xmlns="http://www.w3.org/2000/svg" viewBox="0 0 32 32">
  <rect width="32" height="32" rx="6" fill="#3b82f6"/>
  <path d="M9 27c-4-2.5-5.5-7-3-11 .5 2 1.5 2.5 3 2-.5-4 1.5-7 4-10 1 3.5 3 5 2.5 8.5-.3 1.8.5 3.5 2 4.5C16 24 13.5 27 9 27z" fill="white"/>
  <path d="M17 16h5" stroke="white" stroke-width="2" stroke-linecap="round"/>
  <path d="M20 13.5l2.5 2.5L20 18.5" fill="none" stroke="white" stroke-width="2" stroke-linecap="round" stroke-linejoin="round"/>
  <rect x="22" y="11" width="8" height="7" rx="2" fill="white"/>
  <path d="M26 11V9" stroke="#3b82f6" stroke-width="1.5" stroke-linecap="round"/>
  <circle cx="24.5" cy="14.5" r="1" fill="#3b82f6"/>
  <circle cx="27.5" cy="14.5" r="1" fill="#3b82f6"/>
  <path d="M24 18v2M28 18v2" stroke="white" stroke-width="1.5" stroke-linecap="round"/>
</svg>
